<mxfile host="app.diagrams.net" agent="Mozilla/5.0 (Windows NT 10.0; Win64; x64) AppleWebKit/537.36 (KHTML, like Gecko) Chrome/137.0.0.0 Safari/537.36 Edg/137.0.0.0" version="27.1.4" pages="7">
  <diagram name="Login" id="1gC7JQKa_JbFqpBa67eU">
    <mxGraphModel dx="778" dy="460" grid="0" gridSize="10" guides="1" tooltips="1" connect="1" arrows="1" fold="1" page="1" pageScale="1" pageWidth="827" pageHeight="583" math="0" shadow="0">
      <root>
        <mxCell id="0" />
        <mxCell id="1" parent="0" />
        <mxCell id="erCz02z_c968frXZGp9l-2" value="" style="rounded=0;whiteSpace=wrap;html=1;flipV=1;flipH=1;" parent="1" vertex="1">
          <mxGeometry x="40" y="40" width="750" height="510" as="geometry" />
        </mxCell>
        <mxCell id="erCz02z_c968frXZGp9l-6" value="" style="sketch=0;outlineConnect=0;fontColor=#232F3E;gradientColor=none;fillColor=#232F3D;strokeColor=none;dashed=0;verticalLabelPosition=bottom;verticalAlign=top;align=center;html=1;fontSize=12;fontStyle=0;aspect=fixed;pointerEvents=1;shape=mxgraph.aws4.user;" parent="1" vertex="1">
          <mxGeometry x="375" y="145" width="78" height="78" as="geometry" />
        </mxCell>
        <mxCell id="erCz02z_c968frXZGp9l-7" value="&lt;sup&gt;&lt;font style=&quot;font-size: 11px;&quot;&gt;Email&lt;/font&gt;&lt;font color=&quot;#ff0000&quot;&gt;*&lt;/font&gt;&lt;/sup&gt;" style="fillColor=none;strokeColor=none;html=1;fontSize=11;fontStyle=0;align=left;fontColor=#596780;fontStyle=1;fontSize=11" parent="1" vertex="1">
          <mxGeometry x="269" y="275" width="240" height="20" as="geometry" />
        </mxCell>
        <mxCell id="erCz02z_c968frXZGp9l-8" value="youremail@gmail.com" style="rounded=1;arcSize=9;align=left;spacingLeft=5;strokeColor=#4C9AFF;html=1;strokeWidth=2;fontSize=12" parent="1" vertex="1">
          <mxGeometry x="269" y="300" width="290" height="33" as="geometry" />
        </mxCell>
        <mxCell id="erCz02z_c968frXZGp9l-9" value="Password&lt;sup&gt;&lt;font color=&quot;#ff0000&quot;&gt;*&lt;/font&gt;&lt;/sup&gt;" style="fillColor=none;strokeColor=none;html=1;fontSize=11;fontStyle=0;align=left;fontColor=#596780;fontStyle=1;fontSize=11" parent="1" vertex="1">
          <mxGeometry x="269" y="356" width="240" height="20" as="geometry" />
        </mxCell>
        <mxCell id="erCz02z_c968frXZGp9l-10" value="&amp;#8226;&amp;#8226;&amp;#8226;&amp;#8226;&amp;#8226;&amp;#8226;&amp;#8226;&amp;#8226;" style="rounded=1;arcSize=9;align=left;spacingLeft=5;strokeColor=#4C9AFF;html=1;strokeWidth=2;fontSize=12" parent="1" vertex="1">
          <mxGeometry x="269" y="381" width="290" height="33" as="geometry" />
        </mxCell>
        <mxCell id="erCz02z_c968frXZGp9l-13" value="Sign in" style="rounded=1;fillColor=#0057D8;strokeColor=none;html=1;whiteSpace=wrap;fontColor=#ffffff;align=center;verticalAlign=middle;fontStyle=0;fontSize=12;sketch=0;" parent="1" vertex="1">
          <mxGeometry x="269" y="444" width="291" height="33" as="geometry" />
        </mxCell>
        <mxCell id="erCz02z_c968frXZGp9l-14" value="Login to ChefUp" style="text;html=1;align=center;verticalAlign=middle;resizable=0;points=[];autosize=1;strokeColor=none;fillColor=none;fontSize=18;fontStyle=1" parent="1" vertex="1">
          <mxGeometry x="342" y="228" width="148" height="34" as="geometry" />
        </mxCell>
        <UserObject label="Signup" link="https://www.draw.io" id="yaeOL4TVwBazqqDSnl8N-2">
          <mxCell style="text;html=1;strokeColor=none;fillColor=none;whiteSpace=wrap;align=center;verticalAlign=middle;fontColor=#0000EE;fontStyle=4;fontSize=10;" parent="1" vertex="1">
            <mxGeometry x="367" y="475" width="60" height="40" as="geometry" />
          </mxCell>
        </UserObject>
        <mxCell id="yaeOL4TVwBazqqDSnl8N-4" value="&lt;span style=&quot;color: rgb(40, 44, 51); font-family: &amp;quot;Graphik LC Web&amp;quot;, sans-serif; font-size: 10px; text-align: start; background-color: rgb(255, 255, 255);&quot;&gt;Don&#39;t have an account?&lt;/span&gt;" style="text;html=1;align=center;verticalAlign=middle;whiteSpace=wrap;rounded=0;" parent="1" vertex="1">
          <mxGeometry x="264" y="480" width="122" height="30" as="geometry" />
        </mxCell>
        <mxCell id="mbVS5yXIdQCEXHUhS88f-1" value="" style="html=1;shadow=0;dashed=0;fillColor=#0085FC;strokeColor=none;fontSize=16;fontColor=#ffffff;align=left;spacing=15;" parent="1" vertex="1">
          <mxGeometry x="58" y="59" width="714" height="59" as="geometry" />
        </mxCell>
        <mxCell id="mbVS5yXIdQCEXHUhS88f-2" value="" style="swimlane;shape=mxgraph.bootstrap.anchor;strokeColor=none;fillColor=none;fontColor=#0085FC;fontStyle=0;childLayout=stackLayout;horizontal=0;startSize=0;horizontalStack=1;resizeParent=1;resizeParentMax=0;resizeLast=0;collapsible=0;marginBottom=0;whiteSpace=wrap;html=1;resizeWidth=0;" parent="mbVS5yXIdQCEXHUhS88f-1" vertex="1">
          <mxGeometry y="9.833333333333332" width="80" height="39.33333333333333" as="geometry" />
        </mxCell>
        <mxCell id="mbVS5yXIdQCEXHUhS88f-3" value="ChefUp" style="text;strokeColor=none;align=left;verticalAlign=middle;spacingLeft=15;spacingRight=10;points=[[0,0.5],[1,0.5]];portConstraint=eastwest;rotatable=0;whiteSpace=wrap;html=1;fillColor=none;fontColor=#ffffff;fontSize=16;" parent="mbVS5yXIdQCEXHUhS88f-2" vertex="1">
          <mxGeometry width="80" height="39.33333333333333" as="geometry" />
        </mxCell>
        <mxCell id="mbVS5yXIdQCEXHUhS88f-11" value="" style="swimlane;shape=mxgraph.bootstrap.anchor;strokeColor=none;fillColor=none;fontColor=#0085FC;fontStyle=0;childLayout=stackLayout;horizontal=0;startSize=0;horizontalStack=1;resizeParent=1;resizeParentMax=0;resizeLast=0;collapsible=0;marginBottom=0;whiteSpace=wrap;html=1;resizeWidth=0;" parent="mbVS5yXIdQCEXHUhS88f-1" vertex="1">
          <mxGeometry x="584" y="9.829999999999998" width="119" height="39.33" as="geometry" />
        </mxCell>
        <mxCell id="mbVS5yXIdQCEXHUhS88f-14" value="Login" style="text;strokeColor=none;align=left;verticalAlign=middle;spacingLeft=5;spacingRight=10;points=[[0,0.5],[1,0.5]];portConstraint=eastwest;rotatable=0;whiteSpace=wrap;html=1;fillColor=none;fontColor=#FFFFFF;fontSize=14;" parent="mbVS5yXIdQCEXHUhS88f-11" vertex="1">
          <mxGeometry width="54" height="39.33" as="geometry" />
        </mxCell>
        <mxCell id="mbVS5yXIdQCEXHUhS88f-15" value="Register" style="text;strokeColor=none;align=center;verticalAlign=middle;spacingLeft=10;spacingRight=10;points=[[0,0.5],[1,0.5]];portConstraint=eastwest;rotatable=0;whiteSpace=wrap;html=1;fillColor=none;fontColor=#79BFFD;fontSize=14;" parent="mbVS5yXIdQCEXHUhS88f-11" vertex="1">
          <mxGeometry x="54" width="65" height="39.33" as="geometry" />
        </mxCell>
      </root>
    </mxGraphModel>
  </diagram>
  <diagram name="Register" id="G5bhG80svOw2IOhAVkp6">
    <mxGraphModel dx="778" dy="460" grid="0" gridSize="10" guides="1" tooltips="1" connect="1" arrows="1" fold="1" page="1" pageScale="1" pageWidth="827" pageHeight="583" math="0" shadow="0">
      <root>
        <mxCell id="fw4PkrGc2hmRjdb10R_P-0" />
        <mxCell id="fw4PkrGc2hmRjdb10R_P-1" parent="fw4PkrGc2hmRjdb10R_P-0" />
        <mxCell id="fw4PkrGc2hmRjdb10R_P-2" value="" style="rounded=0;whiteSpace=wrap;html=1;flipV=1;flipH=1;" parent="fw4PkrGc2hmRjdb10R_P-1" vertex="1">
          <mxGeometry x="40" y="40" width="750" height="510" as="geometry" />
        </mxCell>
        <mxCell id="fw4PkrGc2hmRjdb10R_P-3" value="" style="sketch=0;outlineConnect=0;fontColor=#232F3E;gradientColor=none;fillColor=#232F3D;strokeColor=none;dashed=0;verticalLabelPosition=bottom;verticalAlign=top;align=center;html=1;fontSize=12;fontStyle=0;aspect=fixed;pointerEvents=1;shape=mxgraph.aws4.user;" parent="fw4PkrGc2hmRjdb10R_P-1" vertex="1">
          <mxGeometry x="375" y="151" width="78" height="78" as="geometry" />
        </mxCell>
        <mxCell id="fw4PkrGc2hmRjdb10R_P-4" value="Username&lt;sup&gt;&lt;font color=&quot;#ff0000&quot;&gt;*&lt;/font&gt;&lt;/sup&gt;" style="fillColor=none;strokeColor=none;html=1;fontSize=11;fontStyle=0;align=left;fontColor=#596780;fontStyle=1;fontSize=11" parent="fw4PkrGc2hmRjdb10R_P-1" vertex="1">
          <mxGeometry x="269" y="282" width="240" height="20" as="geometry" />
        </mxCell>
        <mxCell id="fw4PkrGc2hmRjdb10R_P-5" value="Messina Cake" style="rounded=1;arcSize=9;align=left;spacingLeft=5;strokeColor=#4C9AFF;html=1;strokeWidth=2;fontSize=12" parent="fw4PkrGc2hmRjdb10R_P-1" vertex="1">
          <mxGeometry x="269" y="307" width="290" height="33" as="geometry" />
        </mxCell>
        <mxCell id="fw4PkrGc2hmRjdb10R_P-6" value="Password&lt;sup&gt;&lt;font color=&quot;#ff0000&quot;&gt;*&lt;/font&gt;&lt;/sup&gt;" style="fillColor=none;strokeColor=none;html=1;fontSize=11;fontStyle=0;align=left;fontColor=#596780;fontStyle=1;fontSize=11" parent="fw4PkrGc2hmRjdb10R_P-1" vertex="1">
          <mxGeometry x="268" y="410" width="240" height="20" as="geometry" />
        </mxCell>
        <mxCell id="fw4PkrGc2hmRjdb10R_P-7" value="&amp;#8226;&amp;#8226;&amp;#8226;&amp;#8226;&amp;#8226;&amp;#8226;&amp;#8226;&amp;#8226;" style="rounded=1;arcSize=9;align=left;spacingLeft=5;strokeColor=#4C9AFF;html=1;strokeWidth=2;fontSize=12" parent="fw4PkrGc2hmRjdb10R_P-1" vertex="1">
          <mxGeometry x="268" y="435" width="290" height="33" as="geometry" />
        </mxCell>
        <mxCell id="fw4PkrGc2hmRjdb10R_P-9" value="Register to ChefUp" style="text;html=1;align=center;verticalAlign=middle;resizable=0;points=[];autosize=1;strokeColor=none;fillColor=none;fontSize=18;fontStyle=1" parent="fw4PkrGc2hmRjdb10R_P-1" vertex="1">
          <mxGeometry x="332" y="239" width="171" height="34" as="geometry" />
        </mxCell>
        <mxCell id="dQlsfBBYQxhPkg6OCvqP-0" value="Sign up" style="rounded=1;fillColor=#0057D8;strokeColor=none;html=1;whiteSpace=wrap;fontColor=#ffffff;align=center;verticalAlign=middle;fontStyle=0;fontSize=12;sketch=0;" parent="fw4PkrGc2hmRjdb10R_P-1" vertex="1">
          <mxGeometry x="268" y="483" width="291" height="33" as="geometry" />
        </mxCell>
        <mxCell id="dQlsfBBYQxhPkg6OCvqP-7" value="Email&lt;span style=&quot;color: rgb(255, 0, 0); font-size: 9.16667px;&quot;&gt;*&lt;/span&gt;" style="fillColor=none;strokeColor=none;html=1;fontSize=11;fontStyle=0;align=left;fontColor=#596780;fontStyle=1;fontSize=11" parent="fw4PkrGc2hmRjdb10R_P-1" vertex="1">
          <mxGeometry x="268" y="348" width="240" height="20" as="geometry" />
        </mxCell>
        <mxCell id="dQlsfBBYQxhPkg6OCvqP-8" value="shrugg#atlassian.com" style="rounded=1;arcSize=9;align=left;spacingLeft=5;strokeColor=#4C9AFF;html=1;strokeWidth=2;fontSize=12" parent="fw4PkrGc2hmRjdb10R_P-1" vertex="1">
          <mxGeometry x="268" y="373" width="290" height="33" as="geometry" />
        </mxCell>
        <mxCell id="dQlsfBBYQxhPkg6OCvqP-9" value="" style="shape=mxgraph.azure.azure_alert;fillColor=#FFAB00;strokeColor=none;html=1;sketch=0;" parent="dQlsfBBYQxhPkg6OCvqP-8" vertex="1">
          <mxGeometry x="1" y="0.5" width="20" height="20" relative="1" as="geometry">
            <mxPoint x="-30" y="-10" as="offset" />
          </mxGeometry>
        </mxCell>
        <mxCell id="dQlsfBBYQxhPkg6OCvqP-10" value="Please enter a valid address." style="rounded=1;arcSize=9;align=center;strokeColor=#DFE1E5;html=1;strokeWidth=1;fontSize=12;shadow=1" parent="fw4PkrGc2hmRjdb10R_P-1" vertex="1">
          <mxGeometry x="566" y="371" width="200" height="32" as="geometry" />
        </mxCell>
        <mxCell id="Rf0O6GPjVrRC4OXVfObF-12" value="" style="html=1;shadow=0;dashed=0;fillColor=#0085FC;strokeColor=none;fontSize=16;fontColor=#ffffff;align=left;spacing=15;" parent="fw4PkrGc2hmRjdb10R_P-1" vertex="1">
          <mxGeometry x="58.5" y="60" width="714" height="59" as="geometry" />
        </mxCell>
        <mxCell id="Rf0O6GPjVrRC4OXVfObF-13" value="" style="swimlane;shape=mxgraph.bootstrap.anchor;strokeColor=none;fillColor=none;fontColor=#0085FC;fontStyle=0;childLayout=stackLayout;horizontal=0;startSize=0;horizontalStack=1;resizeParent=1;resizeParentMax=0;resizeLast=0;collapsible=0;marginBottom=0;whiteSpace=wrap;html=1;resizeWidth=0;" parent="Rf0O6GPjVrRC4OXVfObF-12" vertex="1">
          <mxGeometry y="9.833333333333332" width="80" height="39.33333333333333" as="geometry" />
        </mxCell>
        <mxCell id="Rf0O6GPjVrRC4OXVfObF-14" value="ChefUp" style="text;strokeColor=none;align=left;verticalAlign=middle;spacingLeft=15;spacingRight=10;points=[[0,0.5],[1,0.5]];portConstraint=eastwest;rotatable=0;whiteSpace=wrap;html=1;fillColor=none;fontColor=#ffffff;fontSize=16;" parent="Rf0O6GPjVrRC4OXVfObF-13" vertex="1">
          <mxGeometry width="80" height="39.33333333333333" as="geometry" />
        </mxCell>
        <mxCell id="Rf0O6GPjVrRC4OXVfObF-15" value="" style="swimlane;shape=mxgraph.bootstrap.anchor;strokeColor=none;fillColor=none;fontColor=#0085FC;fontStyle=0;childLayout=stackLayout;horizontal=0;startSize=0;horizontalStack=1;resizeParent=1;resizeParentMax=0;resizeLast=0;collapsible=0;marginBottom=0;whiteSpace=wrap;html=1;resizeWidth=0;" parent="Rf0O6GPjVrRC4OXVfObF-12" vertex="1">
          <mxGeometry x="584" y="9.829999999999998" width="119" height="39.33" as="geometry" />
        </mxCell>
        <mxCell id="Rf0O6GPjVrRC4OXVfObF-16" value="Login" style="text;strokeColor=none;align=left;verticalAlign=middle;spacingLeft=5;spacingRight=10;points=[[0,0.5],[1,0.5]];portConstraint=eastwest;rotatable=0;whiteSpace=wrap;html=1;fillColor=none;fontColor=#79BFFD;fontSize=14;" parent="Rf0O6GPjVrRC4OXVfObF-15" vertex="1">
          <mxGeometry width="54" height="39.33" as="geometry" />
        </mxCell>
        <mxCell id="Rf0O6GPjVrRC4OXVfObF-17" value="Register" style="text;strokeColor=none;align=center;verticalAlign=middle;spacingLeft=10;spacingRight=10;points=[[0,0.5],[1,0.5]];portConstraint=eastwest;rotatable=0;whiteSpace=wrap;html=1;fillColor=none;fontColor=#FFFFFF;fontSize=14;" parent="Rf0O6GPjVrRC4OXVfObF-15" vertex="1">
          <mxGeometry x="54" width="65" height="39.33" as="geometry" />
        </mxCell>
      </root>
    </mxGraphModel>
  </diagram>
  <diagram name="Home" id="4g1A_iz8x5MG5ikIPoMf">
    <mxGraphModel dx="1037" dy="613" grid="0" gridSize="10" guides="1" tooltips="1" connect="1" arrows="1" fold="1" page="1" pageScale="1" pageWidth="827" pageHeight="583" math="0" shadow="0">
      <root>
        <mxCell id="oCcmUuElAEh4TIKr7NXg-0" />
        <mxCell id="oCcmUuElAEh4TIKr7NXg-1" parent="oCcmUuElAEh4TIKr7NXg-0" />
        <mxCell id="oCcmUuElAEh4TIKr7NXg-2" value="" style="rounded=0;whiteSpace=wrap;html=1;flipV=1;flipH=1;" vertex="1" parent="oCcmUuElAEh4TIKr7NXg-1">
          <mxGeometry x="40" y="40" width="750" height="510" as="geometry" />
        </mxCell>
        <mxCell id="oCcmUuElAEh4TIKr7NXg-9" value="Welcome to ChefUp App" style="text;html=1;align=center;verticalAlign=middle;resizable=0;points=[];autosize=1;strokeColor=none;fillColor=none;fontSize=25;fontStyle=1" vertex="1" parent="oCcmUuElAEh4TIKr7NXg-1">
          <mxGeometry x="387" y="193" width="291" height="42" as="geometry" />
        </mxCell>
        <mxCell id="v6brUhOARl3IsnUEbea0-18" value="" style="html=1;shadow=0;dashed=0;fillColor=#0085FC;strokeColor=none;fontSize=16;fontColor=#ffffff;align=left;spacing=15;" vertex="1" parent="oCcmUuElAEh4TIKr7NXg-1">
          <mxGeometry x="59" y="65" width="714" height="59" as="geometry" />
        </mxCell>
        <mxCell id="v6brUhOARl3IsnUEbea0-19" value="" style="swimlane;shape=mxgraph.bootstrap.anchor;strokeColor=none;fillColor=none;fontColor=#0085FC;fontStyle=0;childLayout=stackLayout;horizontal=0;startSize=0;horizontalStack=1;resizeParent=1;resizeParentMax=0;resizeLast=0;collapsible=0;marginBottom=0;whiteSpace=wrap;html=1;resizeWidth=0;" vertex="1" parent="v6brUhOARl3IsnUEbea0-18">
          <mxGeometry y="9.833333333333332" width="350" height="39.33333333333333" as="geometry" />
        </mxCell>
        <mxCell id="v6brUhOARl3IsnUEbea0-20" value="ChefUp" style="text;strokeColor=none;align=left;verticalAlign=middle;spacingLeft=15;spacingRight=10;points=[[0,0.5],[1,0.5]];portConstraint=eastwest;rotatable=0;whiteSpace=wrap;html=1;fillColor=none;fontColor=#ffffff;fontSize=16;" vertex="1" parent="v6brUhOARl3IsnUEbea0-19">
          <mxGeometry width="80" height="39.33333333333333" as="geometry" />
        </mxCell>
        <mxCell id="v6brUhOARl3IsnUEbea0-21" value="Home" style="text;strokeColor=none;align=center;verticalAlign=middle;spacingLeft=10;spacingRight=10;points=[[0,0.5],[1,0.5]];portConstraint=eastwest;rotatable=0;whiteSpace=wrap;html=1;fillColor=none;fontColor=#ffffff;fontSize=14;" vertex="1" parent="v6brUhOARl3IsnUEbea0-19">
          <mxGeometry x="80" width="60" height="39.33333333333333" as="geometry" />
        </mxCell>
        <mxCell id="v6brUhOARl3IsnUEbea0-22" value="Recipes" style="text;strokeColor=none;align=center;verticalAlign=middle;spacingLeft=10;spacingRight=10;points=[[0,0.5],[1,0.5]];portConstraint=eastwest;rotatable=0;whiteSpace=wrap;html=1;fillColor=none;fontColor=#79BFFD;fontSize=14;" vertex="1" parent="v6brUhOARl3IsnUEbea0-19">
          <mxGeometry x="140" width="80" height="39.33333333333333" as="geometry" />
        </mxCell>
        <mxCell id="v6brUhOARl3IsnUEbea0-23" value="Favorites" style="text;strokeColor=none;align=left;verticalAlign=middle;spacingLeft=5;spacingRight=10;points=[[0,0.5],[1,0.5]];portConstraint=eastwest;rotatable=0;whiteSpace=wrap;html=1;fillColor=none;fontColor=#79BFFD;fontSize=14;" vertex="1" parent="v6brUhOARl3IsnUEbea0-19">
          <mxGeometry x="220" width="70" height="39.33333333333333" as="geometry" />
        </mxCell>
        <mxCell id="v6brUhOARl3IsnUEbea0-24" value="Profile" style="text;strokeColor=none;align=center;verticalAlign=middle;spacingLeft=10;spacingRight=10;points=[[0,0.5],[1,0.5]];portConstraint=eastwest;rotatable=0;whiteSpace=wrap;html=1;fillColor=none;fontColor=#79BFFD;fontSize=14;" vertex="1" parent="v6brUhOARl3IsnUEbea0-19">
          <mxGeometry x="290" width="60" height="39.33333333333333" as="geometry" />
        </mxCell>
        <mxCell id="v6brUhOARl3IsnUEbea0-25" value="Search" style="html=1;shadow=0;dashed=0;shape=mxgraph.bootstrap.rrect;rSize=5;fontSize=14;fontColor=#ffffff;strokeColor=#ffffff;fillColor=none;" vertex="1" parent="v6brUhOARl3IsnUEbea0-18">
          <mxGeometry x="1" width="70" height="40" relative="1" as="geometry">
            <mxPoint x="-144" y="10" as="offset" />
          </mxGeometry>
        </mxCell>
        <mxCell id="v6brUhOARl3IsnUEbea0-26" value="Search Recipes" style="html=1;shadow=0;dashed=0;shape=mxgraph.bootstrap.rrect;rSize=5;fontSize=14;fontColor=#6C767D;strokeColor=#CED4DA;fillColor=#ffffff;align=left;spacing=10;" vertex="1" parent="v6brUhOARl3IsnUEbea0-18">
          <mxGeometry x="1" width="180" height="40" relative="1" as="geometry">
            <mxPoint x="-331" y="10" as="offset" />
          </mxGeometry>
        </mxCell>
        <mxCell id="v6brUhOARl3IsnUEbea0-28" value="" style="html=1;verticalLabelPosition=bottom;align=center;labelBackgroundColor=#ffffff;verticalAlign=top;strokeWidth=2;strokeColor=#0080F0;shadow=0;dashed=0;shape=mxgraph.ios7.icons.user;" vertex="1" parent="v6brUhOARl3IsnUEbea0-18">
          <mxGeometry x="664" y="15" width="30" height="30" as="geometry" />
        </mxCell>
        <mxCell id="v6brUhOARl3IsnUEbea0-29" value="&lt;h1 style=&quot;margin-top: 0px;&quot;&gt;Heading&lt;/h1&gt;&lt;p&gt;Lorem ipsum dolor sit amet, consectetur adipisicing elit, sed do eiusmod tempor incididunt ut labore et dolore magna aliqua.&lt;/p&gt;&lt;p&gt;Lorem ipsum dolor sit amet, consectetur adipisicing elit, sed do eiusmod tempor incididunt ut labore et dolore magna aliqua.&lt;/p&gt;&lt;p&gt;Lorem ipsum dolor sit amet, consectetur adipisicing elit, sed do eiusmod tempor incididunt ut labore et dolore magna aliqua.&lt;/p&gt;" style="text;html=1;whiteSpace=wrap;overflow=hidden;rounded=0;" vertex="1" parent="oCcmUuElAEh4TIKr7NXg-1">
          <mxGeometry x="387" y="265" width="303" height="210" as="geometry" />
        </mxCell>
        <mxCell id="v6brUhOARl3IsnUEbea0-30" value="" style="shape=image;html=1;verticalAlign=top;verticalLabelPosition=bottom;labelBackgroundColor=#ffffff;imageAspect=0;aspect=fixed;image=https://cdn4.iconfinder.com/data/icons/ionicons/512/icon-image-128.png" vertex="1" parent="oCcmUuElAEh4TIKr7NXg-1">
          <mxGeometry x="101" y="210" width="241" height="241" as="geometry" />
        </mxCell>
      </root>
    </mxGraphModel>
  </diagram>
  <diagram name="Profile" id="pw6PiO1-oOmLfnkMeu9e">
    <mxGraphModel dx="778" dy="460" grid="0" gridSize="10" guides="1" tooltips="1" connect="1" arrows="1" fold="1" page="1" pageScale="1" pageWidth="827" pageHeight="583" math="0" shadow="0">
      <root>
        <mxCell id="7t8EeTkVWpso1NK14LTL-0" />
        <mxCell id="7t8EeTkVWpso1NK14LTL-1" parent="7t8EeTkVWpso1NK14LTL-0" />
        <mxCell id="7t8EeTkVWpso1NK14LTL-2" value="" style="rounded=0;whiteSpace=wrap;html=1;flipV=1;flipH=1;" parent="7t8EeTkVWpso1NK14LTL-1" vertex="1">
          <mxGeometry x="40" y="40" width="750" height="510" as="geometry" />
        </mxCell>
        <mxCell id="7t8EeTkVWpso1NK14LTL-3" value="Profile" style="text;html=1;align=center;verticalAlign=middle;resizable=0;points=[];autosize=1;strokeColor=none;fillColor=none;fontSize=25;fontStyle=1" parent="7t8EeTkVWpso1NK14LTL-1" vertex="1">
          <mxGeometry x="369" y="152" width="89" height="42" as="geometry" />
        </mxCell>
        <mxCell id="7t8EeTkVWpso1NK14LTL-4" value="" style="html=1;shadow=0;dashed=0;fillColor=#0085FC;strokeColor=none;fontSize=16;fontColor=#ffffff;align=left;spacing=15;" parent="7t8EeTkVWpso1NK14LTL-1" vertex="1">
          <mxGeometry x="59" y="65" width="714" height="59" as="geometry" />
        </mxCell>
        <mxCell id="7t8EeTkVWpso1NK14LTL-5" value="" style="swimlane;shape=mxgraph.bootstrap.anchor;strokeColor=none;fillColor=none;fontColor=#0085FC;fontStyle=0;childLayout=stackLayout;horizontal=0;startSize=0;horizontalStack=1;resizeParent=1;resizeParentMax=0;resizeLast=0;collapsible=0;marginBottom=0;whiteSpace=wrap;html=1;resizeWidth=0;" parent="7t8EeTkVWpso1NK14LTL-4" vertex="1">
          <mxGeometry y="9.833333333333332" width="350" height="39.33333333333333" as="geometry" />
        </mxCell>
        <mxCell id="7t8EeTkVWpso1NK14LTL-6" value="ChefUp" style="text;strokeColor=none;align=left;verticalAlign=middle;spacingLeft=15;spacingRight=10;points=[[0,0.5],[1,0.5]];portConstraint=eastwest;rotatable=0;whiteSpace=wrap;html=1;fillColor=none;fontColor=#ffffff;fontSize=16;" parent="7t8EeTkVWpso1NK14LTL-5" vertex="1">
          <mxGeometry width="80" height="39.33333333333333" as="geometry" />
        </mxCell>
        <mxCell id="7t8EeTkVWpso1NK14LTL-7" value="Home" style="text;strokeColor=none;align=center;verticalAlign=middle;spacingLeft=10;spacingRight=10;points=[[0,0.5],[1,0.5]];portConstraint=eastwest;rotatable=0;whiteSpace=wrap;html=1;fillColor=none;fontColor=#79BFFD;fontSize=14;" parent="7t8EeTkVWpso1NK14LTL-5" vertex="1">
          <mxGeometry x="80" width="60" height="39.33333333333333" as="geometry" />
        </mxCell>
        <mxCell id="7t8EeTkVWpso1NK14LTL-8" value="Recipes" style="text;strokeColor=none;align=center;verticalAlign=middle;spacingLeft=10;spacingRight=10;points=[[0,0.5],[1,0.5]];portConstraint=eastwest;rotatable=0;whiteSpace=wrap;html=1;fillColor=none;fontColor=#79BFFD;fontSize=14;" parent="7t8EeTkVWpso1NK14LTL-5" vertex="1">
          <mxGeometry x="140" width="80" height="39.33333333333333" as="geometry" />
        </mxCell>
        <mxCell id="7t8EeTkVWpso1NK14LTL-9" value="Favorites" style="text;strokeColor=none;align=left;verticalAlign=middle;spacingLeft=5;spacingRight=10;points=[[0,0.5],[1,0.5]];portConstraint=eastwest;rotatable=0;whiteSpace=wrap;html=1;fillColor=none;fontColor=#79BFFD;fontSize=14;" parent="7t8EeTkVWpso1NK14LTL-5" vertex="1">
          <mxGeometry x="220" width="70" height="39.33333333333333" as="geometry" />
        </mxCell>
        <mxCell id="7t8EeTkVWpso1NK14LTL-10" value="Profile" style="text;strokeColor=none;align=center;verticalAlign=middle;spacingLeft=10;spacingRight=10;points=[[0,0.5],[1,0.5]];portConstraint=eastwest;rotatable=0;whiteSpace=wrap;html=1;fillColor=none;fontColor=#FFFFFF;fontSize=14;" parent="7t8EeTkVWpso1NK14LTL-5" vertex="1">
          <mxGeometry x="290" width="60" height="39.33333333333333" as="geometry" />
        </mxCell>
        <mxCell id="7t8EeTkVWpso1NK14LTL-11" value="Search" style="html=1;shadow=0;dashed=0;shape=mxgraph.bootstrap.rrect;rSize=5;fontSize=14;fontColor=#ffffff;strokeColor=#ffffff;fillColor=none;" parent="7t8EeTkVWpso1NK14LTL-4" vertex="1">
          <mxGeometry x="1" width="70" height="40" relative="1" as="geometry">
            <mxPoint x="-144" y="10" as="offset" />
          </mxGeometry>
        </mxCell>
        <mxCell id="7t8EeTkVWpso1NK14LTL-12" value="Search Recipes" style="html=1;shadow=0;dashed=0;shape=mxgraph.bootstrap.rrect;rSize=5;fontSize=14;fontColor=#6C767D;strokeColor=#CED4DA;fillColor=#ffffff;align=left;spacing=10;" parent="7t8EeTkVWpso1NK14LTL-4" vertex="1">
          <mxGeometry x="1" width="180" height="40" relative="1" as="geometry">
            <mxPoint x="-331" y="10" as="offset" />
          </mxGeometry>
        </mxCell>
        <mxCell id="7t8EeTkVWpso1NK14LTL-13" value="" style="html=1;verticalLabelPosition=bottom;align=center;labelBackgroundColor=#ffffff;verticalAlign=top;strokeWidth=2;strokeColor=#0080F0;shadow=0;dashed=0;shape=mxgraph.ios7.icons.user;" parent="7t8EeTkVWpso1NK14LTL-4" vertex="1">
          <mxGeometry x="664" y="15" width="30" height="30" as="geometry" />
        </mxCell>
        <mxCell id="0T3S7mDcaGBmEMFB7eeB-0" value="Your username" style="fillColor=none;strokeColor=none;html=1;fontSize=11;fontStyle=0;align=left;fontColor=#596780;fontStyle=1;fontSize=11" parent="7t8EeTkVWpso1NK14LTL-1" vertex="1">
          <mxGeometry x="269" y="218" width="240" height="20" as="geometry" />
        </mxCell>
        <mxCell id="0T3S7mDcaGBmEMFB7eeB-1" value="Sally Lu" style="rounded=1;arcSize=9;fillColor=#F7F8F9;align=left;spacingLeft=5;strokeColor=#DEE1E6;html=1;strokeWidth=2;fontColor=#596780;fontSize=12" parent="7t8EeTkVWpso1NK14LTL-1" vertex="1">
          <mxGeometry x="269" y="243" width="290" height="33" as="geometry" />
        </mxCell>
        <mxCell id="0T3S7mDcaGBmEMFB7eeB-3" value="Your email" style="fillColor=none;strokeColor=none;html=1;fontSize=11;fontStyle=0;align=left;fontColor=#596780;fontStyle=1;fontSize=11" parent="7t8EeTkVWpso1NK14LTL-1" vertex="1">
          <mxGeometry x="269" y="298" width="240" height="20" as="geometry" />
        </mxCell>
        <mxCell id="0T3S7mDcaGBmEMFB7eeB-4" value="youremail@gmail.com" style="rounded=1;arcSize=9;fillColor=#F7F8F9;align=left;spacingLeft=5;strokeColor=#DEE1E6;html=1;strokeWidth=2;fontColor=#596780;fontSize=12" parent="7t8EeTkVWpso1NK14LTL-1" vertex="1">
          <mxGeometry x="269" y="323" width="290" height="33" as="geometry" />
        </mxCell>
        <mxCell id="0T3S7mDcaGBmEMFB7eeB-5" value="Your password" style="fillColor=none;strokeColor=none;html=1;fontSize=11;fontStyle=0;align=left;fontColor=#596780;fontStyle=1;fontSize=11" parent="7t8EeTkVWpso1NK14LTL-1" vertex="1">
          <mxGeometry x="269" y="373" width="240" height="20" as="geometry" />
        </mxCell>
        <mxCell id="0T3S7mDcaGBmEMFB7eeB-6" value="****************" style="rounded=1;arcSize=9;fillColor=#F7F8F9;align=left;spacingLeft=5;strokeColor=#DEE1E6;html=1;strokeWidth=2;fontColor=#596780;fontSize=12" parent="7t8EeTkVWpso1NK14LTL-1" vertex="1">
          <mxGeometry x="269" y="398" width="290" height="33" as="geometry" />
        </mxCell>
        <mxCell id="gwgvdXbpCqBqLBex0FNA-0" value="Save" style="rounded=1;fillColor=#0057D8;strokeColor=none;html=1;whiteSpace=wrap;fontColor=#ffffff;align=center;verticalAlign=middle;fontStyle=0;fontSize=12;sketch=0;" parent="7t8EeTkVWpso1NK14LTL-1" vertex="1">
          <mxGeometry x="268" y="464" width="291" height="33" as="geometry" />
        </mxCell>
      </root>
    </mxGraphModel>
  </diagram>
  <diagram name="Recipes" id="SxzQ_DzCjHD7m-IXDyt6">
    <mxGraphModel dx="778" dy="460" grid="0" gridSize="10" guides="1" tooltips="1" connect="1" arrows="1" fold="1" page="1" pageScale="1" pageWidth="827" pageHeight="583" math="0" shadow="0">
      <root>
        <mxCell id="lNgd07FBQycIYaJm_Qd0-0" />
        <mxCell id="lNgd07FBQycIYaJm_Qd0-1" parent="lNgd07FBQycIYaJm_Qd0-0" />
        <mxCell id="lNgd07FBQycIYaJm_Qd0-2" value="" style="rounded=0;whiteSpace=wrap;html=1;flipV=1;flipH=1;" vertex="1" parent="lNgd07FBQycIYaJm_Qd0-1">
          <mxGeometry x="40" y="40" width="750" height="510" as="geometry" />
        </mxCell>
        <mxCell id="lNgd07FBQycIYaJm_Qd0-3" value="Recipes" style="text;html=1;align=center;verticalAlign=middle;resizable=0;points=[];autosize=1;strokeColor=none;fillColor=none;fontSize=25;fontStyle=1" vertex="1" parent="lNgd07FBQycIYaJm_Qd0-1">
          <mxGeometry x="360" y="152" width="108" height="42" as="geometry" />
        </mxCell>
        <mxCell id="lNgd07FBQycIYaJm_Qd0-4" value="" style="html=1;shadow=0;dashed=0;fillColor=#0085FC;strokeColor=none;fontSize=16;fontColor=#ffffff;align=left;spacing=15;" vertex="1" parent="lNgd07FBQycIYaJm_Qd0-1">
          <mxGeometry x="59" y="65" width="714" height="59" as="geometry" />
        </mxCell>
        <mxCell id="lNgd07FBQycIYaJm_Qd0-5" value="" style="swimlane;shape=mxgraph.bootstrap.anchor;strokeColor=none;fillColor=none;fontColor=#0085FC;fontStyle=0;childLayout=stackLayout;horizontal=0;startSize=0;horizontalStack=1;resizeParent=1;resizeParentMax=0;resizeLast=0;collapsible=0;marginBottom=0;whiteSpace=wrap;html=1;resizeWidth=0;" vertex="1" parent="lNgd07FBQycIYaJm_Qd0-4">
          <mxGeometry y="9.833333333333332" width="350" height="39.33333333333333" as="geometry" />
        </mxCell>
        <mxCell id="lNgd07FBQycIYaJm_Qd0-6" value="ChefUp" style="text;strokeColor=none;align=left;verticalAlign=middle;spacingLeft=15;spacingRight=10;points=[[0,0.5],[1,0.5]];portConstraint=eastwest;rotatable=0;whiteSpace=wrap;html=1;fillColor=none;fontColor=#ffffff;fontSize=16;" vertex="1" parent="lNgd07FBQycIYaJm_Qd0-5">
          <mxGeometry width="80" height="39.33333333333333" as="geometry" />
        </mxCell>
        <mxCell id="lNgd07FBQycIYaJm_Qd0-7" value="Home" style="text;strokeColor=none;align=center;verticalAlign=middle;spacingLeft=10;spacingRight=10;points=[[0,0.5],[1,0.5]];portConstraint=eastwest;rotatable=0;whiteSpace=wrap;html=1;fillColor=none;fontColor=#79BFFD;fontSize=14;" vertex="1" parent="lNgd07FBQycIYaJm_Qd0-5">
          <mxGeometry x="80" width="60" height="39.33333333333333" as="geometry" />
        </mxCell>
        <mxCell id="lNgd07FBQycIYaJm_Qd0-8" value="Recipes" style="text;strokeColor=none;align=center;verticalAlign=middle;spacingLeft=10;spacingRight=10;points=[[0,0.5],[1,0.5]];portConstraint=eastwest;rotatable=0;whiteSpace=wrap;html=1;fillColor=none;fontColor=#FFFFFF;fontSize=14;" vertex="1" parent="lNgd07FBQycIYaJm_Qd0-5">
          <mxGeometry x="140" width="80" height="39.33333333333333" as="geometry" />
        </mxCell>
        <mxCell id="lNgd07FBQycIYaJm_Qd0-9" value="Favorites" style="text;strokeColor=none;align=left;verticalAlign=middle;spacingLeft=5;spacingRight=10;points=[[0,0.5],[1,0.5]];portConstraint=eastwest;rotatable=0;whiteSpace=wrap;html=1;fillColor=none;fontColor=#79BFFD;fontSize=14;" vertex="1" parent="lNgd07FBQycIYaJm_Qd0-5">
          <mxGeometry x="220" width="70" height="39.33333333333333" as="geometry" />
        </mxCell>
        <mxCell id="lNgd07FBQycIYaJm_Qd0-10" value="Profile" style="text;strokeColor=none;align=center;verticalAlign=middle;spacingLeft=10;spacingRight=10;points=[[0,0.5],[1,0.5]];portConstraint=eastwest;rotatable=0;whiteSpace=wrap;html=1;fillColor=none;fontColor=#79BFFD;fontSize=14;" vertex="1" parent="lNgd07FBQycIYaJm_Qd0-5">
          <mxGeometry x="290" width="60" height="39.33333333333333" as="geometry" />
        </mxCell>
        <mxCell id="lNgd07FBQycIYaJm_Qd0-11" value="Search" style="html=1;shadow=0;dashed=0;shape=mxgraph.bootstrap.rrect;rSize=5;fontSize=14;fontColor=#ffffff;strokeColor=#ffffff;fillColor=none;" vertex="1" parent="lNgd07FBQycIYaJm_Qd0-4">
          <mxGeometry x="1" width="70" height="40" relative="1" as="geometry">
            <mxPoint x="-144" y="10" as="offset" />
          </mxGeometry>
        </mxCell>
        <mxCell id="lNgd07FBQycIYaJm_Qd0-12" value="Search Recipes" style="html=1;shadow=0;dashed=0;shape=mxgraph.bootstrap.rrect;rSize=5;fontSize=14;fontColor=#6C767D;strokeColor=#CED4DA;fillColor=#ffffff;align=left;spacing=10;" vertex="1" parent="lNgd07FBQycIYaJm_Qd0-4">
          <mxGeometry x="1" width="180" height="40" relative="1" as="geometry">
            <mxPoint x="-331" y="10" as="offset" />
          </mxGeometry>
        </mxCell>
        <mxCell id="lNgd07FBQycIYaJm_Qd0-13" value="" style="html=1;verticalLabelPosition=bottom;align=center;labelBackgroundColor=#ffffff;verticalAlign=top;strokeWidth=2;strokeColor=#0080F0;shadow=0;dashed=0;shape=mxgraph.ios7.icons.user;" vertex="1" parent="lNgd07FBQycIYaJm_Qd0-4">
          <mxGeometry x="664" y="15" width="30" height="30" as="geometry" />
        </mxCell>
        <mxCell id="S4PWEzExi1J0FJxTD7q_-23" value="" style="html=1;shadow=0;dashed=0;shape=mxgraph.bootstrap.rrect;rSize=5;strokeColor=#DFDFDF;html=1;whiteSpace=wrap;fillColor=#ffffff;fontColor=#000000;verticalAlign=top;align=left;spacing=20;fontSize=14;spacingLeft=170;" vertex="1" parent="lNgd07FBQycIYaJm_Qd0-1">
          <mxGeometry x="98" y="209" width="282" height="142" as="geometry" />
        </mxCell>
        <mxCell id="S4PWEzExi1J0FJxTD7q_-24" value="Image" style="html=1;shadow=0;dashed=0;shape=mxgraph.bootstrap.leftButton;rSize=5;perimeter=none;whiteSpace=wrap;fillColor=#868E96;strokeColor=#DFDFDF;fontColor=#DEE2E6;resizeWidth=1;fontSize=18;" vertex="1" parent="S4PWEzExi1J0FJxTD7q_-23">
          <mxGeometry width="108.16438356164383" height="142" relative="1" as="geometry" />
        </mxCell>
        <mxCell id="S4PWEzExi1J0FJxTD7q_-25" value="&lt;b&gt;Card title&lt;/b&gt;&lt;br&gt;&lt;br&gt;&lt;span&gt;This is a wider card with supporting text below as a natural lead-in to additional content. This content is a little bit longer.&lt;/span&gt;" style="text;html=1;align=left;verticalAlign=middle;whiteSpace=wrap;rounded=0;fontSize=11;" vertex="1" parent="S4PWEzExi1J0FJxTD7q_-23">
          <mxGeometry x="115" y="28" width="156" height="93" as="geometry" />
        </mxCell>
        <mxCell id="S4PWEzExi1J0FJxTD7q_-27" value="" style="shape=image;html=1;verticalAlign=top;verticalLabelPosition=bottom;labelBackgroundColor=#ffffff;imageAspect=0;aspect=fixed;image=https://cdn1.iconfinder.com/data/icons/material-core/20/favorite-outline-128.png" vertex="1" parent="S4PWEzExi1J0FJxTD7q_-23">
          <mxGeometry x="246" y="13" width="25" height="25" as="geometry" />
        </mxCell>
        <mxCell id="S4PWEzExi1J0FJxTD7q_-28" value="" style="html=1;shadow=0;dashed=0;shape=mxgraph.bootstrap.rrect;rSize=5;strokeColor=#DFDFDF;html=1;whiteSpace=wrap;fillColor=#ffffff;fontColor=#000000;verticalAlign=top;align=left;spacing=20;fontSize=14;spacingLeft=170;" vertex="1" parent="lNgd07FBQycIYaJm_Qd0-1">
          <mxGeometry x="442" y="211" width="282" height="142" as="geometry" />
        </mxCell>
        <mxCell id="S4PWEzExi1J0FJxTD7q_-29" value="Image" style="html=1;shadow=0;dashed=0;shape=mxgraph.bootstrap.leftButton;rSize=5;perimeter=none;whiteSpace=wrap;fillColor=#868E96;strokeColor=#DFDFDF;fontColor=#DEE2E6;resizeWidth=1;fontSize=18;" vertex="1" parent="S4PWEzExi1J0FJxTD7q_-28">
          <mxGeometry width="108.16438356164383" height="142" relative="1" as="geometry" />
        </mxCell>
        <mxCell id="S4PWEzExi1J0FJxTD7q_-30" value="&lt;b&gt;Card title&lt;/b&gt;&lt;br&gt;&lt;br&gt;&lt;span&gt;This is a wider card with supporting text below as a natural lead-in to additional content. This content is a little bit longer.&lt;/span&gt;" style="text;html=1;align=left;verticalAlign=middle;whiteSpace=wrap;rounded=0;fontSize=11;" vertex="1" parent="S4PWEzExi1J0FJxTD7q_-28">
          <mxGeometry x="115" y="28" width="156" height="93" as="geometry" />
        </mxCell>
        <mxCell id="S4PWEzExi1J0FJxTD7q_-31" value="" style="shape=image;html=1;verticalAlign=top;verticalLabelPosition=bottom;labelBackgroundColor=#ffffff;imageAspect=0;aspect=fixed;image=https://cdn1.iconfinder.com/data/icons/material-core/20/favorite-outline-128.png" vertex="1" parent="S4PWEzExi1J0FJxTD7q_-28">
          <mxGeometry x="246" y="13" width="25" height="25" as="geometry" />
        </mxCell>
        <mxCell id="S4PWEzExi1J0FJxTD7q_-32" value="" style="html=1;shadow=0;dashed=0;shape=mxgraph.bootstrap.rrect;rSize=5;strokeColor=#DFDFDF;html=1;whiteSpace=wrap;fillColor=#ffffff;fontColor=#000000;verticalAlign=top;align=left;spacing=20;fontSize=14;spacingLeft=170;" vertex="1" parent="lNgd07FBQycIYaJm_Qd0-1">
          <mxGeometry x="98" y="369" width="282" height="142" as="geometry" />
        </mxCell>
        <mxCell id="S4PWEzExi1J0FJxTD7q_-33" value="Image" style="html=1;shadow=0;dashed=0;shape=mxgraph.bootstrap.leftButton;rSize=5;perimeter=none;whiteSpace=wrap;fillColor=#868E96;strokeColor=#DFDFDF;fontColor=#DEE2E6;resizeWidth=1;fontSize=18;" vertex="1" parent="S4PWEzExi1J0FJxTD7q_-32">
          <mxGeometry width="108.16438356164383" height="142" relative="1" as="geometry" />
        </mxCell>
        <mxCell id="S4PWEzExi1J0FJxTD7q_-34" value="&lt;b&gt;Card title&lt;/b&gt;&lt;br&gt;&lt;br&gt;&lt;span&gt;This is a wider card with supporting text below as a natural lead-in to additional content. This content is a little bit longer.&lt;/span&gt;" style="text;html=1;align=left;verticalAlign=middle;whiteSpace=wrap;rounded=0;fontSize=11;" vertex="1" parent="S4PWEzExi1J0FJxTD7q_-32">
          <mxGeometry x="115" y="28" width="156" height="93" as="geometry" />
        </mxCell>
        <mxCell id="S4PWEzExi1J0FJxTD7q_-35" value="" style="shape=image;html=1;verticalAlign=top;verticalLabelPosition=bottom;labelBackgroundColor=#ffffff;imageAspect=0;aspect=fixed;image=https://cdn1.iconfinder.com/data/icons/material-core/20/favorite-outline-128.png" vertex="1" parent="S4PWEzExi1J0FJxTD7q_-32">
          <mxGeometry x="246" y="13" width="25" height="25" as="geometry" />
        </mxCell>
        <mxCell id="S4PWEzExi1J0FJxTD7q_-36" value="" style="html=1;shadow=0;dashed=0;shape=mxgraph.bootstrap.rrect;rSize=5;strokeColor=#DFDFDF;html=1;whiteSpace=wrap;fillColor=#ffffff;fontColor=#000000;verticalAlign=top;align=left;spacing=20;fontSize=14;spacingLeft=170;" vertex="1" parent="lNgd07FBQycIYaJm_Qd0-1">
          <mxGeometry x="444" y="369" width="282" height="142" as="geometry" />
        </mxCell>
        <mxCell id="S4PWEzExi1J0FJxTD7q_-37" value="Image" style="html=1;shadow=0;dashed=0;shape=mxgraph.bootstrap.leftButton;rSize=5;perimeter=none;whiteSpace=wrap;fillColor=#868E96;strokeColor=#DFDFDF;fontColor=#DEE2E6;resizeWidth=1;fontSize=18;" vertex="1" parent="S4PWEzExi1J0FJxTD7q_-36">
          <mxGeometry width="108.16438356164383" height="142" relative="1" as="geometry" />
        </mxCell>
        <mxCell id="S4PWEzExi1J0FJxTD7q_-38" value="&lt;u&gt;&lt;b&gt;Card title&lt;/b&gt;&lt;br&gt;&lt;br&gt;&lt;span&gt;This is a wider card with supporting text below as a natural lead-in to additional content. This content is a little bit longer.&lt;/span&gt;&lt;/u&gt;" style="text;html=1;align=left;verticalAlign=middle;whiteSpace=wrap;rounded=0;fontSize=11;" vertex="1" parent="S4PWEzExi1J0FJxTD7q_-36">
          <mxGeometry x="115" y="28" width="156" height="93" as="geometry" />
        </mxCell>
        <mxCell id="S4PWEzExi1J0FJxTD7q_-40" value="" style="shape=image;html=1;verticalAlign=top;verticalLabelPosition=bottom;labelBackgroundColor=#ffffff;imageAspect=0;aspect=fixed;image=https://cdn4.iconfinder.com/data/icons/essential-app-2/16/heart-favourite-favorite-love-128.png" vertex="1" parent="S4PWEzExi1J0FJxTD7q_-36">
          <mxGeometry x="246" y="13" width="25" height="25" as="geometry" />
        </mxCell>
        <mxCell id="S4PWEzExi1J0FJxTD7q_-47" value="" style="swimlane;shape=mxgraph.bootstrap.anchor;strokeColor=#DEE2E6;fillColor=#ffffff;fontColor=#0085FC;fontStyle=0;childLayout=stackLayout;horizontal=0;startSize=0;horizontalStack=1;resizeParent=1;resizeParentMax=0;resizeLast=0;collapsible=0;marginBottom=0;whiteSpace=wrap;html=1;fontSize=7;" vertex="1" parent="lNgd07FBQycIYaJm_Qd0-1">
          <mxGeometry x="304" y="520" width="220" height="22" as="geometry" />
        </mxCell>
        <mxCell id="S4PWEzExi1J0FJxTD7q_-48" value="Previous" style="text;strokeColor=inherit;align=center;verticalAlign=middle;spacingLeft=5;spacingRight=5;overflow=hidden;points=[[0,0.5],[1,0.5]];portConstraint=eastwest;rotatable=0;whiteSpace=wrap;html=1;shape=mxgraph.bootstrap.leftButton;rSize=5;fillColor=inherit;fontColor=#6C767D;fontSize=14;" vertex="1" parent="S4PWEzExi1J0FJxTD7q_-47">
          <mxGeometry width="70" height="22" as="geometry" />
        </mxCell>
        <mxCell id="S4PWEzExi1J0FJxTD7q_-49" value="1" style="text;strokeColor=inherit;align=center;verticalAlign=middle;spacingLeft=5;spacingRight=5;overflow=hidden;points=[[0,0.5],[1,0.5]];portConstraint=eastwest;rotatable=0;whiteSpace=wrap;html=1;rSize=5;fillColor=inherit;fontColor=inherit;fontSize=14;" vertex="1" parent="S4PWEzExi1J0FJxTD7q_-47">
          <mxGeometry x="70" width="30" height="22" as="geometry" />
        </mxCell>
        <mxCell id="S4PWEzExi1J0FJxTD7q_-50" value="2" style="text;strokeColor=inherit;align=center;verticalAlign=middle;spacingLeft=5;spacingRight=5;overflow=hidden;points=[[0,0.5],[1,0.5]];portConstraint=eastwest;rotatable=0;whiteSpace=wrap;html=1;rSize=5;fillColor=#0085FC;fontColor=#ffffff;fontSize=14;" vertex="1" parent="S4PWEzExi1J0FJxTD7q_-47">
          <mxGeometry x="100" width="30" height="22" as="geometry" />
        </mxCell>
        <mxCell id="S4PWEzExi1J0FJxTD7q_-51" value="3" style="text;strokeColor=inherit;align=center;verticalAlign=middle;spacingLeft=5;spacingRight=5;overflow=hidden;points=[[0,0.5],[1,0.5]];portConstraint=eastwest;rotatable=0;whiteSpace=wrap;html=1;rSize=5;fillColor=inherit;fontColor=inherit;fontSize=14;" vertex="1" parent="S4PWEzExi1J0FJxTD7q_-47">
          <mxGeometry x="130" width="30" height="22" as="geometry" />
        </mxCell>
        <mxCell id="S4PWEzExi1J0FJxTD7q_-52" value="Next" style="text;strokeColor=inherit;align=center;verticalAlign=middle;spacingLeft=5;spacingRight=5;overflow=hidden;points=[[0,0.5],[1,0.5]];portConstraint=eastwest;rotatable=0;whiteSpace=wrap;html=1;shape=mxgraph.bootstrap.rightButton;rSize=5;fillColor=inherit;fontColor=inherit;fontSize=14;" vertex="1" parent="S4PWEzExi1J0FJxTD7q_-47">
          <mxGeometry x="160" width="60" height="22" as="geometry" />
        </mxCell>
      </root>
    </mxGraphModel>
  </diagram>
  <diagram name="Recipe Details" id="NQtCKqvE73vOdDGlwze4">
    <mxGraphModel dx="778" dy="460" grid="0" gridSize="10" guides="1" tooltips="1" connect="1" arrows="1" fold="1" page="1" pageScale="1" pageWidth="827" pageHeight="583" math="0" shadow="0">
      <root>
        <mxCell id="OamiKWnHxiTQNn_Ggswy-0" />
        <mxCell id="OamiKWnHxiTQNn_Ggswy-1" parent="OamiKWnHxiTQNn_Ggswy-0" />
        <mxCell id="OamiKWnHxiTQNn_Ggswy-2" value="" style="rounded=0;whiteSpace=wrap;html=1;flipV=1;flipH=1;" vertex="1" parent="OamiKWnHxiTQNn_Ggswy-1">
          <mxGeometry x="40" y="40" width="750" height="510" as="geometry" />
        </mxCell>
        <mxCell id="OamiKWnHxiTQNn_Ggswy-3" value="Recipe Details" style="text;html=1;align=center;verticalAlign=middle;resizable=0;points=[];autosize=1;strokeColor=none;fillColor=none;fontSize=25;fontStyle=1" vertex="1" parent="OamiKWnHxiTQNn_Ggswy-1">
          <mxGeometry x="325" y="152" width="179" height="42" as="geometry" />
        </mxCell>
        <mxCell id="OamiKWnHxiTQNn_Ggswy-4" value="" style="html=1;shadow=0;dashed=0;fillColor=#0085FC;strokeColor=none;fontSize=16;fontColor=#ffffff;align=left;spacing=15;" vertex="1" parent="OamiKWnHxiTQNn_Ggswy-1">
          <mxGeometry x="59" y="65" width="714" height="59" as="geometry" />
        </mxCell>
        <mxCell id="OamiKWnHxiTQNn_Ggswy-5" value="" style="swimlane;shape=mxgraph.bootstrap.anchor;strokeColor=none;fillColor=none;fontColor=#0085FC;fontStyle=0;childLayout=stackLayout;horizontal=0;startSize=0;horizontalStack=1;resizeParent=1;resizeParentMax=0;resizeLast=0;collapsible=0;marginBottom=0;whiteSpace=wrap;html=1;resizeWidth=0;" vertex="1" parent="OamiKWnHxiTQNn_Ggswy-4">
          <mxGeometry y="9.833333333333332" width="350" height="39.33333333333333" as="geometry" />
        </mxCell>
        <mxCell id="OamiKWnHxiTQNn_Ggswy-6" value="ChefUp" style="text;strokeColor=none;align=left;verticalAlign=middle;spacingLeft=15;spacingRight=10;points=[[0,0.5],[1,0.5]];portConstraint=eastwest;rotatable=0;whiteSpace=wrap;html=1;fillColor=none;fontColor=#ffffff;fontSize=16;" vertex="1" parent="OamiKWnHxiTQNn_Ggswy-5">
          <mxGeometry width="80" height="39.33333333333333" as="geometry" />
        </mxCell>
        <mxCell id="OamiKWnHxiTQNn_Ggswy-7" value="Home" style="text;strokeColor=none;align=center;verticalAlign=middle;spacingLeft=10;spacingRight=10;points=[[0,0.5],[1,0.5]];portConstraint=eastwest;rotatable=0;whiteSpace=wrap;html=1;fillColor=none;fontColor=#79BFFD;fontSize=14;" vertex="1" parent="OamiKWnHxiTQNn_Ggswy-5">
          <mxGeometry x="80" width="60" height="39.33333333333333" as="geometry" />
        </mxCell>
        <mxCell id="OamiKWnHxiTQNn_Ggswy-8" value="Recipes" style="text;strokeColor=none;align=center;verticalAlign=middle;spacingLeft=10;spacingRight=10;points=[[0,0.5],[1,0.5]];portConstraint=eastwest;rotatable=0;whiteSpace=wrap;html=1;fillColor=none;fontColor=#FFFFFF;fontSize=14;" vertex="1" parent="OamiKWnHxiTQNn_Ggswy-5">
          <mxGeometry x="140" width="80" height="39.33333333333333" as="geometry" />
        </mxCell>
        <mxCell id="OamiKWnHxiTQNn_Ggswy-9" value="Favorites" style="text;strokeColor=none;align=left;verticalAlign=middle;spacingLeft=5;spacingRight=10;points=[[0,0.5],[1,0.5]];portConstraint=eastwest;rotatable=0;whiteSpace=wrap;html=1;fillColor=none;fontColor=#79BFFD;fontSize=14;" vertex="1" parent="OamiKWnHxiTQNn_Ggswy-5">
          <mxGeometry x="220" width="70" height="39.33333333333333" as="geometry" />
        </mxCell>
        <mxCell id="OamiKWnHxiTQNn_Ggswy-10" value="Profile" style="text;strokeColor=none;align=center;verticalAlign=middle;spacingLeft=10;spacingRight=10;points=[[0,0.5],[1,0.5]];portConstraint=eastwest;rotatable=0;whiteSpace=wrap;html=1;fillColor=none;fontColor=#79BFFD;fontSize=14;" vertex="1" parent="OamiKWnHxiTQNn_Ggswy-5">
          <mxGeometry x="290" width="60" height="39.33333333333333" as="geometry" />
        </mxCell>
        <mxCell id="OamiKWnHxiTQNn_Ggswy-11" value="Search" style="html=1;shadow=0;dashed=0;shape=mxgraph.bootstrap.rrect;rSize=5;fontSize=14;fontColor=#ffffff;strokeColor=#ffffff;fillColor=none;" vertex="1" parent="OamiKWnHxiTQNn_Ggswy-4">
          <mxGeometry x="1" width="70" height="40" relative="1" as="geometry">
            <mxPoint x="-144" y="10" as="offset" />
          </mxGeometry>
        </mxCell>
        <mxCell id="OamiKWnHxiTQNn_Ggswy-12" value="Search Recipes" style="html=1;shadow=0;dashed=0;shape=mxgraph.bootstrap.rrect;rSize=5;fontSize=14;fontColor=#6C767D;strokeColor=#CED4DA;fillColor=#ffffff;align=left;spacing=10;" vertex="1" parent="OamiKWnHxiTQNn_Ggswy-4">
          <mxGeometry x="1" width="180" height="40" relative="1" as="geometry">
            <mxPoint x="-331" y="10" as="offset" />
          </mxGeometry>
        </mxCell>
        <mxCell id="OamiKWnHxiTQNn_Ggswy-13" value="" style="html=1;verticalLabelPosition=bottom;align=center;labelBackgroundColor=#ffffff;verticalAlign=top;strokeWidth=2;strokeColor=#0080F0;shadow=0;dashed=0;shape=mxgraph.ios7.icons.user;" vertex="1" parent="OamiKWnHxiTQNn_Ggswy-4">
          <mxGeometry x="664" y="15" width="30" height="30" as="geometry" />
        </mxCell>
        <mxCell id="OamiKWnHxiTQNn_Ggswy-26" value="" style="html=1;shadow=0;dashed=0;shape=mxgraph.bootstrap.rrect;rSize=5;strokeColor=#DFDFDF;html=1;whiteSpace=wrap;fillColor=#ffffff;fontColor=#000000;verticalAlign=top;align=left;spacing=20;fontSize=14;spacingLeft=170;" vertex="1" parent="OamiKWnHxiTQNn_Ggswy-1">
          <mxGeometry x="119" y="209" width="590" height="290" as="geometry" />
        </mxCell>
        <mxCell id="OamiKWnHxiTQNn_Ggswy-27" value="Image" style="html=1;shadow=0;dashed=0;shape=mxgraph.bootstrap.leftButton;rSize=5;perimeter=none;whiteSpace=wrap;fillColor=#868E96;strokeColor=#DFDFDF;fontColor=#DEE2E6;resizeWidth=1;fontSize=18;" vertex="1" parent="OamiKWnHxiTQNn_Ggswy-26">
          <mxGeometry width="226.29893805309737" height="292" relative="1" as="geometry" />
        </mxCell>
        <mxCell id="OamiKWnHxiTQNn_Ggswy-28" value="&lt;span&gt;&lt;b&gt;Card title&lt;/b&gt;&lt;br&gt;&lt;br&gt;&lt;span&gt;This is a wider card with supporting text below as a natural lead-in to additional content. This content is a little bit longer.&lt;/span&gt;&lt;/span&gt;&lt;div&gt;&lt;p style=&quot;&quot;&gt;&lt;font&gt;Lorem ipsum dolor sit amet, consectetur adipisicing elit, sed do eiusmod tempor incididunt ut labore et dolore magna aliqua.&lt;/font&gt;&lt;/p&gt;&lt;/div&gt;" style="text;html=1;align=left;verticalAlign=top;whiteSpace=wrap;rounded=0;fontSize=18;fontStyle=0" vertex="1" parent="OamiKWnHxiTQNn_Ggswy-26">
          <mxGeometry x="240.6" y="22" width="326.38" height="225.11" as="geometry" />
        </mxCell>
        <mxCell id="OamiKWnHxiTQNn_Ggswy-29" value="" style="shape=image;html=1;verticalAlign=top;verticalLabelPosition=bottom;labelBackgroundColor=#ffffff;imageAspect=0;aspect=fixed;image=https://cdn4.iconfinder.com/data/icons/essential-app-2/16/heart-favourite-favorite-love-128.png" vertex="1" parent="OamiKWnHxiTQNn_Ggswy-26">
          <mxGeometry x="533.54" y="23.73" width="33.45" height="33.45" as="geometry" />
        </mxCell>
      </root>
    </mxGraphModel>
  </diagram>
  <diagram name="Favorites" id="Gj5f61qxUt5uj8-hzY5_">
    <mxGraphModel dx="778" dy="460" grid="0" gridSize="10" guides="1" tooltips="1" connect="1" arrows="1" fold="1" page="1" pageScale="1" pageWidth="827" pageHeight="583" math="0" shadow="0">
      <root>
        <mxCell id="0zmcquFbZS04C_R3K1Of-0" />
        <mxCell id="0zmcquFbZS04C_R3K1Of-1" parent="0zmcquFbZS04C_R3K1Of-0" />
        <mxCell id="0zmcquFbZS04C_R3K1Of-2" value="" style="rounded=0;whiteSpace=wrap;html=1;flipV=1;flipH=1;" vertex="1" parent="0zmcquFbZS04C_R3K1Of-1">
          <mxGeometry x="40" y="40" width="750" height="510" as="geometry" />
        </mxCell>
        <mxCell id="0zmcquFbZS04C_R3K1Of-3" value="Favorites" style="text;html=1;align=center;verticalAlign=middle;resizable=0;points=[];autosize=1;strokeColor=none;fillColor=none;fontSize=25;fontStyle=1" vertex="1" parent="0zmcquFbZS04C_R3K1Of-1">
          <mxGeometry x="354" y="152" width="121" height="42" as="geometry" />
        </mxCell>
        <mxCell id="0zmcquFbZS04C_R3K1Of-4" value="" style="html=1;shadow=0;dashed=0;fillColor=#0085FC;strokeColor=none;fontSize=16;fontColor=#ffffff;align=left;spacing=15;" vertex="1" parent="0zmcquFbZS04C_R3K1Of-1">
          <mxGeometry x="59" y="65" width="714" height="59" as="geometry" />
        </mxCell>
        <mxCell id="0zmcquFbZS04C_R3K1Of-5" value="" style="swimlane;shape=mxgraph.bootstrap.anchor;strokeColor=none;fillColor=none;fontColor=#0085FC;fontStyle=0;childLayout=stackLayout;horizontal=0;startSize=0;horizontalStack=1;resizeParent=1;resizeParentMax=0;resizeLast=0;collapsible=0;marginBottom=0;whiteSpace=wrap;html=1;resizeWidth=0;" vertex="1" parent="0zmcquFbZS04C_R3K1Of-4">
          <mxGeometry y="9.833333333333332" width="350" height="39.33333333333333" as="geometry" />
        </mxCell>
        <mxCell id="0zmcquFbZS04C_R3K1Of-6" value="ChefUp" style="text;strokeColor=none;align=left;verticalAlign=middle;spacingLeft=15;spacingRight=10;points=[[0,0.5],[1,0.5]];portConstraint=eastwest;rotatable=0;whiteSpace=wrap;html=1;fillColor=none;fontColor=#ffffff;fontSize=16;" vertex="1" parent="0zmcquFbZS04C_R3K1Of-5">
          <mxGeometry width="80" height="39.33333333333333" as="geometry" />
        </mxCell>
        <mxCell id="0zmcquFbZS04C_R3K1Of-7" value="Home" style="text;strokeColor=none;align=center;verticalAlign=middle;spacingLeft=10;spacingRight=10;points=[[0,0.5],[1,0.5]];portConstraint=eastwest;rotatable=0;whiteSpace=wrap;html=1;fillColor=none;fontColor=#79BFFD;fontSize=14;" vertex="1" parent="0zmcquFbZS04C_R3K1Of-5">
          <mxGeometry x="80" width="60" height="39.33333333333333" as="geometry" />
        </mxCell>
        <mxCell id="0zmcquFbZS04C_R3K1Of-8" value="Recipes" style="text;strokeColor=none;align=center;verticalAlign=middle;spacingLeft=10;spacingRight=10;points=[[0,0.5],[1,0.5]];portConstraint=eastwest;rotatable=0;whiteSpace=wrap;html=1;fillColor=none;fontColor=#79BFFD;fontSize=14;" vertex="1" parent="0zmcquFbZS04C_R3K1Of-5">
          <mxGeometry x="140" width="80" height="39.33333333333333" as="geometry" />
        </mxCell>
        <mxCell id="0zmcquFbZS04C_R3K1Of-9" value="Favorites" style="text;strokeColor=none;align=left;verticalAlign=middle;spacingLeft=5;spacingRight=10;points=[[0,0.5],[1,0.5]];portConstraint=eastwest;rotatable=0;whiteSpace=wrap;html=1;fillColor=none;fontColor=#FFFFFF;fontSize=14;" vertex="1" parent="0zmcquFbZS04C_R3K1Of-5">
          <mxGeometry x="220" width="70" height="39.33333333333333" as="geometry" />
        </mxCell>
        <mxCell id="0zmcquFbZS04C_R3K1Of-10" value="Profile" style="text;strokeColor=none;align=center;verticalAlign=middle;spacingLeft=10;spacingRight=10;points=[[0,0.5],[1,0.5]];portConstraint=eastwest;rotatable=0;whiteSpace=wrap;html=1;fillColor=none;fontColor=#79BFFD;fontSize=14;" vertex="1" parent="0zmcquFbZS04C_R3K1Of-5">
          <mxGeometry x="290" width="60" height="39.33333333333333" as="geometry" />
        </mxCell>
        <mxCell id="0zmcquFbZS04C_R3K1Of-11" value="Search" style="html=1;shadow=0;dashed=0;shape=mxgraph.bootstrap.rrect;rSize=5;fontSize=14;fontColor=#ffffff;strokeColor=#ffffff;fillColor=none;" vertex="1" parent="0zmcquFbZS04C_R3K1Of-4">
          <mxGeometry x="1" width="70" height="40" relative="1" as="geometry">
            <mxPoint x="-144" y="10" as="offset" />
          </mxGeometry>
        </mxCell>
        <mxCell id="0zmcquFbZS04C_R3K1Of-12" value="Search Recipes" style="html=1;shadow=0;dashed=0;shape=mxgraph.bootstrap.rrect;rSize=5;fontSize=14;fontColor=#6C767D;strokeColor=#CED4DA;fillColor=#ffffff;align=left;spacing=10;" vertex="1" parent="0zmcquFbZS04C_R3K1Of-4">
          <mxGeometry x="1" width="180" height="40" relative="1" as="geometry">
            <mxPoint x="-331" y="10" as="offset" />
          </mxGeometry>
        </mxCell>
        <mxCell id="0zmcquFbZS04C_R3K1Of-13" value="" style="html=1;verticalLabelPosition=bottom;align=center;labelBackgroundColor=#ffffff;verticalAlign=top;strokeWidth=2;strokeColor=#0080F0;shadow=0;dashed=0;shape=mxgraph.ios7.icons.user;" vertex="1" parent="0zmcquFbZS04C_R3K1Of-4">
          <mxGeometry x="664" y="15" width="30" height="30" as="geometry" />
        </mxCell>
        <mxCell id="0zmcquFbZS04C_R3K1Of-14" value="" style="html=1;shadow=0;dashed=0;shape=mxgraph.bootstrap.rrect;rSize=5;strokeColor=#DFDFDF;html=1;whiteSpace=wrap;fillColor=#ffffff;fontColor=#000000;verticalAlign=top;align=left;spacing=20;fontSize=14;spacingLeft=170;" vertex="1" parent="0zmcquFbZS04C_R3K1Of-1">
          <mxGeometry x="98" y="209" width="282" height="142" as="geometry" />
        </mxCell>
        <mxCell id="0zmcquFbZS04C_R3K1Of-15" value="Image" style="html=1;shadow=0;dashed=0;shape=mxgraph.bootstrap.leftButton;rSize=5;perimeter=none;whiteSpace=wrap;fillColor=#868E96;strokeColor=#DFDFDF;fontColor=#DEE2E6;resizeWidth=1;fontSize=18;" vertex="1" parent="0zmcquFbZS04C_R3K1Of-14">
          <mxGeometry width="108.16438356164383" height="142" relative="1" as="geometry" />
        </mxCell>
        <mxCell id="0zmcquFbZS04C_R3K1Of-16" value="&lt;b&gt;Card title&lt;/b&gt;&lt;br&gt;&lt;br&gt;&lt;span&gt;This is a wider card with supporting text below as a natural lead-in to additional content. This content is a little bit longer.&lt;/span&gt;" style="text;html=1;align=left;verticalAlign=middle;whiteSpace=wrap;rounded=0;fontSize=11;" vertex="1" parent="0zmcquFbZS04C_R3K1Of-14">
          <mxGeometry x="115" y="28" width="156" height="93" as="geometry" />
        </mxCell>
        <mxCell id="0zmcquFbZS04C_R3K1Of-17" value="" style="shape=image;html=1;verticalAlign=top;verticalLabelPosition=bottom;labelBackgroundColor=#ffffff;imageAspect=0;aspect=fixed;image=https://cdn1.iconfinder.com/data/icons/material-core/20/favorite-outline-128.png" vertex="1" parent="0zmcquFbZS04C_R3K1Of-14">
          <mxGeometry x="246" y="13" width="25" height="25" as="geometry" />
        </mxCell>
        <mxCell id="w4ewZck5-2m3BF0ZOV8d-5" value="" style="shape=image;html=1;verticalAlign=top;verticalLabelPosition=bottom;labelBackgroundColor=#ffffff;imageAspect=0;aspect=fixed;image=https://cdn4.iconfinder.com/data/icons/essential-app-2/16/heart-favourite-favorite-love-128.png" vertex="1" parent="0zmcquFbZS04C_R3K1Of-14">
          <mxGeometry x="246" y="13" width="25" height="25" as="geometry" />
        </mxCell>
        <mxCell id="0zmcquFbZS04C_R3K1Of-18" value="" style="html=1;shadow=0;dashed=0;shape=mxgraph.bootstrap.rrect;rSize=5;strokeColor=#DFDFDF;html=1;whiteSpace=wrap;fillColor=#ffffff;fontColor=#000000;verticalAlign=top;align=left;spacing=20;fontSize=14;spacingLeft=170;" vertex="1" parent="0zmcquFbZS04C_R3K1Of-1">
          <mxGeometry x="442" y="211" width="282" height="142" as="geometry" />
        </mxCell>
        <mxCell id="0zmcquFbZS04C_R3K1Of-19" value="Image" style="html=1;shadow=0;dashed=0;shape=mxgraph.bootstrap.leftButton;rSize=5;perimeter=none;whiteSpace=wrap;fillColor=#868E96;strokeColor=#DFDFDF;fontColor=#DEE2E6;resizeWidth=1;fontSize=18;" vertex="1" parent="0zmcquFbZS04C_R3K1Of-18">
          <mxGeometry width="108.16438356164383" height="142" relative="1" as="geometry" />
        </mxCell>
        <mxCell id="0zmcquFbZS04C_R3K1Of-20" value="&lt;b&gt;Card title&lt;/b&gt;&lt;br&gt;&lt;br&gt;&lt;span&gt;This is a wider card with supporting text below as a natural lead-in to additional content. This content is a little bit longer.&lt;/span&gt;" style="text;html=1;align=left;verticalAlign=middle;whiteSpace=wrap;rounded=0;fontSize=11;" vertex="1" parent="0zmcquFbZS04C_R3K1Of-18">
          <mxGeometry x="115" y="28" width="156" height="93" as="geometry" />
        </mxCell>
        <mxCell id="0zmcquFbZS04C_R3K1Of-21" value="" style="shape=image;html=1;verticalAlign=top;verticalLabelPosition=bottom;labelBackgroundColor=#ffffff;imageAspect=0;aspect=fixed;image=https://cdn1.iconfinder.com/data/icons/material-core/20/favorite-outline-128.png" vertex="1" parent="0zmcquFbZS04C_R3K1Of-18">
          <mxGeometry x="246" y="13" width="25" height="25" as="geometry" />
        </mxCell>
        <mxCell id="w4ewZck5-2m3BF0ZOV8d-4" value="" style="shape=image;html=1;verticalAlign=top;verticalLabelPosition=bottom;labelBackgroundColor=#ffffff;imageAspect=0;aspect=fixed;image=https://cdn4.iconfinder.com/data/icons/essential-app-2/16/heart-favourite-favorite-love-128.png" vertex="1" parent="0zmcquFbZS04C_R3K1Of-18">
          <mxGeometry x="246" y="13" width="25" height="25" as="geometry" />
        </mxCell>
        <mxCell id="0zmcquFbZS04C_R3K1Of-22" value="" style="html=1;shadow=0;dashed=0;shape=mxgraph.bootstrap.rrect;rSize=5;strokeColor=#DFDFDF;html=1;whiteSpace=wrap;fillColor=#ffffff;fontColor=#000000;verticalAlign=top;align=left;spacing=20;fontSize=14;spacingLeft=170;" vertex="1" parent="0zmcquFbZS04C_R3K1Of-1">
          <mxGeometry x="98" y="369" width="282" height="142" as="geometry" />
        </mxCell>
        <mxCell id="0zmcquFbZS04C_R3K1Of-23" value="Image" style="html=1;shadow=0;dashed=0;shape=mxgraph.bootstrap.leftButton;rSize=5;perimeter=none;whiteSpace=wrap;fillColor=#868E96;strokeColor=#DFDFDF;fontColor=#DEE2E6;resizeWidth=1;fontSize=18;" vertex="1" parent="0zmcquFbZS04C_R3K1Of-22">
          <mxGeometry width="108.16438356164383" height="142" relative="1" as="geometry" />
        </mxCell>
        <mxCell id="0zmcquFbZS04C_R3K1Of-24" value="&lt;b&gt;Card title&lt;/b&gt;&lt;br&gt;&lt;br&gt;&lt;span&gt;This is a wider card with supporting text below as a natural lead-in to additional content. This content is a little bit longer.&lt;/span&gt;" style="text;html=1;align=left;verticalAlign=middle;whiteSpace=wrap;rounded=0;fontSize=11;" vertex="1" parent="0zmcquFbZS04C_R3K1Of-22">
          <mxGeometry x="115" y="28" width="156" height="93" as="geometry" />
        </mxCell>
        <mxCell id="0zmcquFbZS04C_R3K1Of-25" value="" style="shape=image;html=1;verticalAlign=top;verticalLabelPosition=bottom;labelBackgroundColor=#ffffff;imageAspect=0;aspect=fixed;image=https://cdn1.iconfinder.com/data/icons/material-core/20/favorite-outline-128.png" vertex="1" parent="0zmcquFbZS04C_R3K1Of-22">
          <mxGeometry x="246" y="13" width="25" height="25" as="geometry" />
        </mxCell>
        <mxCell id="w4ewZck5-2m3BF0ZOV8d-6" value="" style="shape=image;html=1;verticalAlign=top;verticalLabelPosition=bottom;labelBackgroundColor=#ffffff;imageAspect=0;aspect=fixed;image=https://cdn4.iconfinder.com/data/icons/essential-app-2/16/heart-favourite-favorite-love-128.png" vertex="1" parent="0zmcquFbZS04C_R3K1Of-22">
          <mxGeometry x="246" y="13" width="25" height="25" as="geometry" />
        </mxCell>
        <mxCell id="0zmcquFbZS04C_R3K1Of-26" value="" style="html=1;shadow=0;dashed=0;shape=mxgraph.bootstrap.rrect;rSize=5;strokeColor=#DFDFDF;html=1;whiteSpace=wrap;fillColor=#ffffff;fontColor=#000000;verticalAlign=top;align=left;spacing=20;fontSize=14;spacingLeft=170;" vertex="1" parent="0zmcquFbZS04C_R3K1Of-1">
          <mxGeometry x="444" y="369" width="282" height="142" as="geometry" />
        </mxCell>
        <mxCell id="0zmcquFbZS04C_R3K1Of-27" value="Image" style="html=1;shadow=0;dashed=0;shape=mxgraph.bootstrap.leftButton;rSize=5;perimeter=none;whiteSpace=wrap;fillColor=#868E96;strokeColor=#DFDFDF;fontColor=#DEE2E6;resizeWidth=1;fontSize=18;" vertex="1" parent="0zmcquFbZS04C_R3K1Of-26">
          <mxGeometry width="108.16438356164383" height="142" relative="1" as="geometry" />
        </mxCell>
        <mxCell id="0zmcquFbZS04C_R3K1Of-28" value="&lt;u&gt;&lt;b&gt;Card title&lt;/b&gt;&lt;br&gt;&lt;br&gt;&lt;span&gt;This is a wider card with supporting text below as a natural lead-in to additional content. This content is a little bit longer.&lt;/span&gt;&lt;/u&gt;" style="text;html=1;align=left;verticalAlign=middle;whiteSpace=wrap;rounded=0;fontSize=11;" vertex="1" parent="0zmcquFbZS04C_R3K1Of-26">
          <mxGeometry x="115" y="28" width="156" height="93" as="geometry" />
        </mxCell>
        <mxCell id="0zmcquFbZS04C_R3K1Of-29" value="" style="shape=image;html=1;verticalAlign=top;verticalLabelPosition=bottom;labelBackgroundColor=#ffffff;imageAspect=0;aspect=fixed;image=https://cdn4.iconfinder.com/data/icons/essential-app-2/16/heart-favourite-favorite-love-128.png" vertex="1" parent="0zmcquFbZS04C_R3K1Of-26">
          <mxGeometry x="246" y="13" width="25" height="25" as="geometry" />
        </mxCell>
        <mxCell id="0zmcquFbZS04C_R3K1Of-30" value="" style="swimlane;shape=mxgraph.bootstrap.anchor;strokeColor=#DEE2E6;fillColor=#ffffff;fontColor=#0085FC;fontStyle=0;childLayout=stackLayout;horizontal=0;startSize=0;horizontalStack=1;resizeParent=1;resizeParentMax=0;resizeLast=0;collapsible=0;marginBottom=0;whiteSpace=wrap;html=1;fontSize=7;" vertex="1" parent="0zmcquFbZS04C_R3K1Of-1">
          <mxGeometry x="304" y="520" width="220" height="22" as="geometry" />
        </mxCell>
        <mxCell id="0zmcquFbZS04C_R3K1Of-31" value="Previous" style="text;strokeColor=inherit;align=center;verticalAlign=middle;spacingLeft=5;spacingRight=5;overflow=hidden;points=[[0,0.5],[1,0.5]];portConstraint=eastwest;rotatable=0;whiteSpace=wrap;html=1;shape=mxgraph.bootstrap.leftButton;rSize=5;fillColor=inherit;fontColor=#6C767D;fontSize=14;" vertex="1" parent="0zmcquFbZS04C_R3K1Of-30">
          <mxGeometry width="70" height="22" as="geometry" />
        </mxCell>
        <mxCell id="0zmcquFbZS04C_R3K1Of-32" value="1" style="text;strokeColor=inherit;align=center;verticalAlign=middle;spacingLeft=5;spacingRight=5;overflow=hidden;points=[[0,0.5],[1,0.5]];portConstraint=eastwest;rotatable=0;whiteSpace=wrap;html=1;rSize=5;fillColor=inherit;fontColor=inherit;fontSize=14;" vertex="1" parent="0zmcquFbZS04C_R3K1Of-30">
          <mxGeometry x="70" width="30" height="22" as="geometry" />
        </mxCell>
        <mxCell id="0zmcquFbZS04C_R3K1Of-33" value="2" style="text;strokeColor=inherit;align=center;verticalAlign=middle;spacingLeft=5;spacingRight=5;overflow=hidden;points=[[0,0.5],[1,0.5]];portConstraint=eastwest;rotatable=0;whiteSpace=wrap;html=1;rSize=5;fillColor=#0085FC;fontColor=#ffffff;fontSize=14;" vertex="1" parent="0zmcquFbZS04C_R3K1Of-30">
          <mxGeometry x="100" width="30" height="22" as="geometry" />
        </mxCell>
        <mxCell id="0zmcquFbZS04C_R3K1Of-34" value="3" style="text;strokeColor=inherit;align=center;verticalAlign=middle;spacingLeft=5;spacingRight=5;overflow=hidden;points=[[0,0.5],[1,0.5]];portConstraint=eastwest;rotatable=0;whiteSpace=wrap;html=1;rSize=5;fillColor=inherit;fontColor=inherit;fontSize=14;" vertex="1" parent="0zmcquFbZS04C_R3K1Of-30">
          <mxGeometry x="130" width="30" height="22" as="geometry" />
        </mxCell>
        <mxCell id="0zmcquFbZS04C_R3K1Of-35" value="Next" style="text;strokeColor=inherit;align=center;verticalAlign=middle;spacingLeft=5;spacingRight=5;overflow=hidden;points=[[0,0.5],[1,0.5]];portConstraint=eastwest;rotatable=0;whiteSpace=wrap;html=1;shape=mxgraph.bootstrap.rightButton;rSize=5;fillColor=inherit;fontColor=inherit;fontSize=14;" vertex="1" parent="0zmcquFbZS04C_R3K1Of-30">
          <mxGeometry x="160" width="60" height="22" as="geometry" />
        </mxCell>
      </root>
    </mxGraphModel>
  </diagram>
</mxfile>
